<?xml version="1.0" encoding="utf-8" standalone="no"?>
<!DOCTYPE svg PUBLIC "-//W3C//DTD SVG 1.1//EN"
  "http://www.w3.org/Graphics/SVG/1.1/DTD/svg11.dtd">
<svg xmlns:xlink="http://www.w3.org/1999/xlink" width="1080pt" height="360pt" viewBox="0 0 1080 360" xmlns="http://www.w3.org/2000/svg" version="1.1">
 <metadata>
  <rdf:RDF xmlns:dc="http://purl.org/dc/elements/1.1/" xmlns:cc="http://creativecommons.org/ns#" xmlns:rdf="http://www.w3.org/1999/02/22-rdf-syntax-ns#">
   <cc:Work>
    <dc:type rdf:resource="http://purl.org/dc/dcmitype/StillImage"/>
    <dc:date>2025-05-17T18:36:06.975422</dc:date>
    <dc:format>image/svg+xml</dc:format>
    <dc:creator>
     <cc:Agent>
      <dc:title>Matplotlib v3.9.2, https://matplotlib.org/</dc:title>
     </cc:Agent>
    </dc:creator>
   </cc:Work>
  </rdf:RDF>
 </metadata>
 <defs>
  <style type="text/css">*{stroke-linejoin: round; stroke-linecap: butt}</style>
 </defs>
 <g id="figure_1">
  <g id="patch_1">
   <path d="M 0 360 
L 1080 360 
L 1080 0 
L 0 0 
z
" style="fill: #ffffff"/>
  </g>
  <g id="axes_1"/>
  <g id="axes_2">
   <g id="patch_2">
    <path d="M 55.76625 312.4575 
L 353.199706 312.4575 
L 353.199706 39.6 
L 55.76625 39.6 
z
" style="fill: #ffffff"/>
   </g>
   <g id="matplotlib.axis_1">
    <g id="xtick_1">
     <g id="line2d_1">
      <path d="M 58.740089 312.4575 
L 58.740089 39.6 
" clip-path="url(#p61a8a4303f)" style="fill: none; stroke: #cccccc; stroke-linecap: round"/>
     </g>
     <g id="text_1">
      <!-- −1.0 -->
      <g style="fill: #262626" transform="translate(47.882745 329.831094) scale(0.11 -0.11)">
       <defs>
        <path id="ArialMT-2212" d="M 3381 1997 
L 356 1997 
L 356 2522 
L 3381 2522 
L 3381 1997 
z
" transform="scale(0.015625)"/>
        <path id="ArialMT-31" d="M 2384 0 
L 1822 0 
L 1822 3584 
Q 1619 3391 1289 3197 
Q 959 3003 697 2906 
L 697 3450 
Q 1169 3672 1522 3987 
Q 1875 4303 2022 4600 
L 2384 4600 
L 2384 0 
z
" transform="scale(0.015625)"/>
        <path id="ArialMT-2e" d="M 581 0 
L 581 641 
L 1222 641 
L 1222 0 
L 581 0 
z
" transform="scale(0.015625)"/>
        <path id="ArialMT-30" d="M 266 2259 
Q 266 3072 433 3567 
Q 600 4063 929 4331 
Q 1259 4600 1759 4600 
Q 2128 4600 2406 4451 
Q 2684 4303 2865 4023 
Q 3047 3744 3150 3342 
Q 3253 2941 3253 2259 
Q 3253 1453 3087 958 
Q 2922 463 2592 192 
Q 2263 -78 1759 -78 
Q 1097 -78 719 397 
Q 266 969 266 2259 
z
M 844 2259 
Q 844 1131 1108 757 
Q 1372 384 1759 384 
Q 2147 384 2411 759 
Q 2675 1134 2675 2259 
Q 2675 3391 2411 3762 
Q 2147 4134 1753 4134 
Q 1366 4134 1134 3806 
Q 844 3388 844 2259 
z
" transform="scale(0.015625)"/>
       </defs>
       <use xlink:href="#ArialMT-2212"/>
       <use xlink:href="#ArialMT-31" x="58.398438"/>
       <use xlink:href="#ArialMT-2e" x="114.013672"/>
       <use xlink:href="#ArialMT-30" x="141.796875"/>
      </g>
     </g>
    </g>
    <g id="xtick_2">
     <g id="line2d_2">
      <path d="M 101.743001 312.4575 
L 101.743001 39.6 
" clip-path="url(#p61a8a4303f)" style="fill: none; stroke: #cccccc; stroke-linecap: round"/>
     </g>
     <g id="text_2">
      <!-- −0.5 -->
      <g style="fill: #262626" transform="translate(90.885657 329.831094) scale(0.11 -0.11)">
       <defs>
        <path id="ArialMT-35" d="M 266 1200 
L 856 1250 
Q 922 819 1161 601 
Q 1400 384 1738 384 
Q 2144 384 2425 690 
Q 2706 997 2706 1503 
Q 2706 1984 2436 2262 
Q 2166 2541 1728 2541 
Q 1456 2541 1237 2417 
Q 1019 2294 894 2097 
L 366 2166 
L 809 4519 
L 3088 4519 
L 3088 3981 
L 1259 3981 
L 1013 2750 
Q 1425 3038 1878 3038 
Q 2478 3038 2890 2622 
Q 3303 2206 3303 1553 
Q 3303 931 2941 478 
Q 2500 -78 1738 -78 
Q 1113 -78 717 272 
Q 322 622 266 1200 
z
" transform="scale(0.015625)"/>
       </defs>
       <use xlink:href="#ArialMT-2212"/>
       <use xlink:href="#ArialMT-30" x="58.398438"/>
       <use xlink:href="#ArialMT-2e" x="114.013672"/>
       <use xlink:href="#ArialMT-35" x="141.796875"/>
      </g>
     </g>
    </g>
    <g id="xtick_3">
     <g id="line2d_3">
      <path d="M 144.745914 312.4575 
L 144.745914 39.6 
" clip-path="url(#p61a8a4303f)" style="fill: none; stroke: #cccccc; stroke-linecap: round"/>
     </g>
     <g id="text_3">
      <!-- 0.0 -->
      <g style="fill: #262626" transform="translate(137.100914 329.831094) scale(0.11 -0.11)">
       <use xlink:href="#ArialMT-30"/>
       <use xlink:href="#ArialMT-2e" x="55.615234"/>
       <use xlink:href="#ArialMT-30" x="83.398438"/>
      </g>
     </g>
    </g>
    <g id="xtick_4">
     <g id="line2d_4">
      <path d="M 187.748826 312.4575 
L 187.748826 39.6 
" clip-path="url(#p61a8a4303f)" style="fill: none; stroke: #cccccc; stroke-linecap: round"/>
     </g>
     <g id="text_4">
      <!-- 0.5 -->
      <g style="fill: #262626" transform="translate(180.103826 329.831094) scale(0.11 -0.11)">
       <use xlink:href="#ArialMT-30"/>
       <use xlink:href="#ArialMT-2e" x="55.615234"/>
       <use xlink:href="#ArialMT-35" x="83.398438"/>
      </g>
     </g>
    </g>
    <g id="xtick_5">
     <g id="line2d_5">
      <path d="M 230.751738 312.4575 
L 230.751738 39.6 
" clip-path="url(#p61a8a4303f)" style="fill: none; stroke: #cccccc; stroke-linecap: round"/>
     </g>
     <g id="text_5">
      <!-- 1.0 -->
      <g style="fill: #262626" transform="translate(223.106738 329.831094) scale(0.11 -0.11)">
       <use xlink:href="#ArialMT-31"/>
       <use xlink:href="#ArialMT-2e" x="55.615234"/>
       <use xlink:href="#ArialMT-30" x="83.398438"/>
      </g>
     </g>
    </g>
    <g id="xtick_6">
     <g id="line2d_6">
      <path d="M 273.754651 312.4575 
L 273.754651 39.6 
" clip-path="url(#p61a8a4303f)" style="fill: none; stroke: #cccccc; stroke-linecap: round"/>
     </g>
     <g id="text_6">
      <!-- 1.5 -->
      <g style="fill: #262626" transform="translate(266.109651 329.831094) scale(0.11 -0.11)">
       <use xlink:href="#ArialMT-31"/>
       <use xlink:href="#ArialMT-2e" x="55.615234"/>
       <use xlink:href="#ArialMT-35" x="83.398438"/>
      </g>
     </g>
    </g>
    <g id="xtick_7">
     <g id="line2d_7">
      <path d="M 316.757563 312.4575 
L 316.757563 39.6 
" clip-path="url(#p61a8a4303f)" style="fill: none; stroke: #cccccc; stroke-linecap: round"/>
     </g>
     <g id="text_7">
      <!-- 2.0 -->
      <g style="fill: #262626" transform="translate(309.112563 329.831094) scale(0.11 -0.11)">
       <defs>
        <path id="ArialMT-32" d="M 3222 541 
L 3222 0 
L 194 0 
Q 188 203 259 391 
Q 375 700 629 1000 
Q 884 1300 1366 1694 
Q 2113 2306 2375 2664 
Q 2638 3022 2638 3341 
Q 2638 3675 2398 3904 
Q 2159 4134 1775 4134 
Q 1369 4134 1125 3890 
Q 881 3647 878 3216 
L 300 3275 
Q 359 3922 746 4261 
Q 1134 4600 1788 4600 
Q 2447 4600 2831 4234 
Q 3216 3869 3216 3328 
Q 3216 3053 3103 2787 
Q 2991 2522 2730 2228 
Q 2469 1934 1863 1422 
Q 1356 997 1212 845 
Q 1069 694 975 541 
L 3222 541 
z
" transform="scale(0.015625)"/>
       </defs>
       <use xlink:href="#ArialMT-32"/>
       <use xlink:href="#ArialMT-2e" x="55.615234"/>
       <use xlink:href="#ArialMT-30" x="83.398438"/>
      </g>
     </g>
    </g>
    <g id="text_8">
     <!-- num__precip -->
     <g style="fill: #262626" transform="translate(169.79829 344.606719) scale(0.12 -0.12)">
      <defs>
       <path id="ArialMT-6e" d="M 422 0 
L 422 3319 
L 928 3319 
L 928 2847 
Q 1294 3394 1984 3394 
Q 2284 3394 2536 3286 
Q 2788 3178 2913 3003 
Q 3038 2828 3088 2588 
Q 3119 2431 3119 2041 
L 3119 0 
L 2556 0 
L 2556 2019 
Q 2556 2363 2490 2533 
Q 2425 2703 2258 2804 
Q 2091 2906 1866 2906 
Q 1506 2906 1245 2678 
Q 984 2450 984 1813 
L 984 0 
L 422 0 
z
" transform="scale(0.015625)"/>
       <path id="ArialMT-75" d="M 2597 0 
L 2597 488 
Q 2209 -75 1544 -75 
Q 1250 -75 995 37 
Q 741 150 617 320 
Q 494 491 444 738 
Q 409 903 409 1263 
L 409 3319 
L 972 3319 
L 972 1478 
Q 972 1038 1006 884 
Q 1059 663 1231 536 
Q 1403 409 1656 409 
Q 1909 409 2131 539 
Q 2353 669 2445 892 
Q 2538 1116 2538 1541 
L 2538 3319 
L 3100 3319 
L 3100 0 
L 2597 0 
z
" transform="scale(0.015625)"/>
       <path id="ArialMT-6d" d="M 422 0 
L 422 3319 
L 925 3319 
L 925 2853 
Q 1081 3097 1340 3245 
Q 1600 3394 1931 3394 
Q 2300 3394 2536 3241 
Q 2772 3088 2869 2813 
Q 3263 3394 3894 3394 
Q 4388 3394 4653 3120 
Q 4919 2847 4919 2278 
L 4919 0 
L 4359 0 
L 4359 2091 
Q 4359 2428 4304 2576 
Q 4250 2725 4106 2815 
Q 3963 2906 3769 2906 
Q 3419 2906 3187 2673 
Q 2956 2441 2956 1928 
L 2956 0 
L 2394 0 
L 2394 2156 
Q 2394 2531 2256 2718 
Q 2119 2906 1806 2906 
Q 1569 2906 1367 2781 
Q 1166 2656 1075 2415 
Q 984 2175 984 1722 
L 984 0 
L 422 0 
z
" transform="scale(0.015625)"/>
       <path id="ArialMT-5f" d="M -97 -1272 
L -97 -866 
L 3631 -866 
L 3631 -1272 
L -97 -1272 
z
" transform="scale(0.015625)"/>
       <path id="ArialMT-70" d="M 422 -1272 
L 422 3319 
L 934 3319 
L 934 2888 
Q 1116 3141 1344 3267 
Q 1572 3394 1897 3394 
Q 2322 3394 2647 3175 
Q 2972 2956 3137 2557 
Q 3303 2159 3303 1684 
Q 3303 1175 3120 767 
Q 2938 359 2589 142 
Q 2241 -75 1856 -75 
Q 1575 -75 1351 44 
Q 1128 163 984 344 
L 984 -1272 
L 422 -1272 
z
M 931 1641 
Q 931 1000 1190 694 
Q 1450 388 1819 388 
Q 2194 388 2461 705 
Q 2728 1022 2728 1688 
Q 2728 2322 2467 2637 
Q 2206 2953 1844 2953 
Q 1484 2953 1207 2617 
Q 931 2281 931 1641 
z
" transform="scale(0.015625)"/>
       <path id="ArialMT-72" d="M 416 0 
L 416 3319 
L 922 3319 
L 922 2816 
Q 1116 3169 1280 3281 
Q 1444 3394 1641 3394 
Q 1925 3394 2219 3213 
L 2025 2691 
Q 1819 2813 1613 2813 
Q 1428 2813 1281 2702 
Q 1134 2591 1072 2394 
Q 978 2094 978 1738 
L 978 0 
L 416 0 
z
" transform="scale(0.015625)"/>
       <path id="ArialMT-65" d="M 2694 1069 
L 3275 997 
Q 3138 488 2766 206 
Q 2394 -75 1816 -75 
Q 1088 -75 661 373 
Q 234 822 234 1631 
Q 234 2469 665 2931 
Q 1097 3394 1784 3394 
Q 2450 3394 2872 2941 
Q 3294 2488 3294 1666 
Q 3294 1616 3291 1516 
L 816 1516 
Q 847 969 1125 678 
Q 1403 388 1819 388 
Q 2128 388 2347 550 
Q 2566 713 2694 1069 
z
M 847 1978 
L 2700 1978 
Q 2663 2397 2488 2606 
Q 2219 2931 1791 2931 
Q 1403 2931 1139 2672 
Q 875 2413 847 1978 
z
" transform="scale(0.015625)"/>
       <path id="ArialMT-63" d="M 2588 1216 
L 3141 1144 
Q 3050 572 2676 248 
Q 2303 -75 1759 -75 
Q 1078 -75 664 370 
Q 250 816 250 1647 
Q 250 2184 428 2587 
Q 606 2991 970 3192 
Q 1334 3394 1763 3394 
Q 2303 3394 2647 3120 
Q 2991 2847 3088 2344 
L 2541 2259 
Q 2463 2594 2264 2762 
Q 2066 2931 1784 2931 
Q 1359 2931 1093 2626 
Q 828 2322 828 1663 
Q 828 994 1084 691 
Q 1341 388 1753 388 
Q 2084 388 2306 591 
Q 2528 794 2588 1216 
z
" transform="scale(0.015625)"/>
       <path id="ArialMT-69" d="M 425 3934 
L 425 4581 
L 988 4581 
L 988 3934 
L 425 3934 
z
M 425 0 
L 425 3319 
L 988 3319 
L 988 0 
L 425 0 
z
" transform="scale(0.015625)"/>
      </defs>
      <use xlink:href="#ArialMT-6e"/>
      <use xlink:href="#ArialMT-75" x="55.615234"/>
      <use xlink:href="#ArialMT-6d" x="111.230469"/>
      <use xlink:href="#ArialMT-5f" x="194.53125"/>
      <use xlink:href="#ArialMT-5f" x="250.146484"/>
      <use xlink:href="#ArialMT-70" x="305.761719"/>
      <use xlink:href="#ArialMT-72" x="361.376953"/>
      <use xlink:href="#ArialMT-65" x="394.677734"/>
      <use xlink:href="#ArialMT-63" x="450.292969"/>
      <use xlink:href="#ArialMT-69" x="500.292969"/>
      <use xlink:href="#ArialMT-70" x="522.509766"/>
     </g>
    </g>
   </g>
   <g id="matplotlib.axis_2">
    <g id="ytick_1">
     <g id="line2d_8">
      <path d="M 55.76625 261.365338 
L 353.199706 261.365338 
" clip-path="url(#p61a8a4303f)" style="fill: none; stroke: #cccccc; stroke-linecap: round"/>
     </g>
     <g id="text_9">
      <!-- 450 -->
      <g style="fill: #262626" transform="translate(27.915156 265.302134) scale(0.11 -0.11)">
       <defs>
        <path id="ArialMT-34" d="M 2069 0 
L 2069 1097 
L 81 1097 
L 81 1613 
L 2172 4581 
L 2631 4581 
L 2631 1613 
L 3250 1613 
L 3250 1097 
L 2631 1097 
L 2631 0 
L 2069 0 
z
M 2069 1613 
L 2069 3678 
L 634 1613 
L 2069 1613 
z
" transform="scale(0.015625)"/>
       </defs>
       <use xlink:href="#ArialMT-34"/>
       <use xlink:href="#ArialMT-35" x="55.615234"/>
       <use xlink:href="#ArialMT-30" x="111.230469"/>
      </g>
     </g>
    </g>
    <g id="ytick_2">
     <g id="line2d_9">
      <path d="M 55.76625 202.331199 
L 353.199706 202.331199 
" clip-path="url(#p61a8a4303f)" style="fill: none; stroke: #cccccc; stroke-linecap: round"/>
     </g>
     <g id="text_10">
      <!-- 500 -->
      <g style="fill: #262626" transform="translate(27.915156 206.267996) scale(0.11 -0.11)">
       <use xlink:href="#ArialMT-35"/>
       <use xlink:href="#ArialMT-30" x="55.615234"/>
       <use xlink:href="#ArialMT-30" x="111.230469"/>
      </g>
     </g>
    </g>
    <g id="ytick_3">
     <g id="line2d_10">
      <path d="M 55.76625 143.297061 
L 353.199706 143.297061 
" clip-path="url(#p61a8a4303f)" style="fill: none; stroke: #cccccc; stroke-linecap: round"/>
     </g>
     <g id="text_11">
      <!-- 550 -->
      <g style="fill: #262626" transform="translate(27.915156 147.233858) scale(0.11 -0.11)">
       <use xlink:href="#ArialMT-35"/>
       <use xlink:href="#ArialMT-35" x="55.615234"/>
       <use xlink:href="#ArialMT-30" x="111.230469"/>
      </g>
     </g>
    </g>
    <g id="ytick_4">
     <g id="line2d_11">
      <path d="M 55.76625 84.262922 
L 353.199706 84.262922 
" clip-path="url(#p61a8a4303f)" style="fill: none; stroke: #cccccc; stroke-linecap: round"/>
     </g>
     <g id="text_12">
      <!-- 600 -->
      <g style="fill: #262626" transform="translate(27.915156 88.199719) scale(0.11 -0.11)">
       <defs>
        <path id="ArialMT-36" d="M 3184 3459 
L 2625 3416 
Q 2550 3747 2413 3897 
Q 2184 4138 1850 4138 
Q 1581 4138 1378 3988 
Q 1113 3794 959 3422 
Q 806 3050 800 2363 
Q 1003 2672 1297 2822 
Q 1591 2972 1913 2972 
Q 2475 2972 2870 2558 
Q 3266 2144 3266 1488 
Q 3266 1056 3080 686 
Q 2894 316 2569 119 
Q 2244 -78 1831 -78 
Q 1128 -78 684 439 
Q 241 956 241 2144 
Q 241 3472 731 4075 
Q 1159 4600 1884 4600 
Q 2425 4600 2770 4297 
Q 3116 3994 3184 3459 
z
M 888 1484 
Q 888 1194 1011 928 
Q 1134 663 1356 523 
Q 1578 384 1822 384 
Q 2178 384 2434 671 
Q 2691 959 2691 1453 
Q 2691 1928 2437 2201 
Q 2184 2475 1800 2475 
Q 1419 2475 1153 2201 
Q 888 1928 888 1484 
z
" transform="scale(0.015625)"/>
       </defs>
       <use xlink:href="#ArialMT-36"/>
       <use xlink:href="#ArialMT-30" x="55.615234"/>
       <use xlink:href="#ArialMT-30" x="111.230469"/>
      </g>
     </g>
    </g>
    <g id="text_13">
     <!-- Partial dependence -->
     <g style="fill: #262626" transform="translate(21.530156 227.730937) rotate(-90) scale(0.12 -0.12)">
      <defs>
       <path id="ArialMT-50" d="M 494 0 
L 494 4581 
L 2222 4581 
Q 2678 4581 2919 4538 
Q 3256 4481 3484 4323 
Q 3713 4166 3852 3881 
Q 3991 3597 3991 3256 
Q 3991 2672 3619 2267 
Q 3247 1863 2275 1863 
L 1100 1863 
L 1100 0 
L 494 0 
z
M 1100 2403 
L 2284 2403 
Q 2872 2403 3119 2622 
Q 3366 2841 3366 3238 
Q 3366 3525 3220 3729 
Q 3075 3934 2838 4000 
Q 2684 4041 2272 4041 
L 1100 4041 
L 1100 2403 
z
" transform="scale(0.015625)"/>
       <path id="ArialMT-61" d="M 2588 409 
Q 2275 144 1986 34 
Q 1697 -75 1366 -75 
Q 819 -75 525 192 
Q 231 459 231 875 
Q 231 1119 342 1320 
Q 453 1522 633 1644 
Q 813 1766 1038 1828 
Q 1203 1872 1538 1913 
Q 2219 1994 2541 2106 
Q 2544 2222 2544 2253 
Q 2544 2597 2384 2738 
Q 2169 2928 1744 2928 
Q 1347 2928 1158 2789 
Q 969 2650 878 2297 
L 328 2372 
Q 403 2725 575 2942 
Q 747 3159 1072 3276 
Q 1397 3394 1825 3394 
Q 2250 3394 2515 3294 
Q 2781 3194 2906 3042 
Q 3031 2891 3081 2659 
Q 3109 2516 3109 2141 
L 3109 1391 
Q 3109 606 3145 398 
Q 3181 191 3288 0 
L 2700 0 
Q 2613 175 2588 409 
z
M 2541 1666 
Q 2234 1541 1622 1453 
Q 1275 1403 1131 1340 
Q 988 1278 909 1158 
Q 831 1038 831 891 
Q 831 666 1001 516 
Q 1172 366 1500 366 
Q 1825 366 2078 508 
Q 2331 650 2450 897 
Q 2541 1088 2541 1459 
L 2541 1666 
z
" transform="scale(0.015625)"/>
       <path id="ArialMT-74" d="M 1650 503 
L 1731 6 
Q 1494 -44 1306 -44 
Q 1000 -44 831 53 
Q 663 150 594 308 
Q 525 466 525 972 
L 525 2881 
L 113 2881 
L 113 3319 
L 525 3319 
L 525 4141 
L 1084 4478 
L 1084 3319 
L 1650 3319 
L 1650 2881 
L 1084 2881 
L 1084 941 
Q 1084 700 1114 631 
Q 1144 563 1211 522 
Q 1278 481 1403 481 
Q 1497 481 1650 503 
z
" transform="scale(0.015625)"/>
       <path id="ArialMT-6c" d="M 409 0 
L 409 4581 
L 972 4581 
L 972 0 
L 409 0 
z
" transform="scale(0.015625)"/>
       <path id="ArialMT-20" transform="scale(0.015625)"/>
       <path id="ArialMT-64" d="M 2575 0 
L 2575 419 
Q 2259 -75 1647 -75 
Q 1250 -75 917 144 
Q 584 363 401 755 
Q 219 1147 219 1656 
Q 219 2153 384 2558 
Q 550 2963 881 3178 
Q 1213 3394 1622 3394 
Q 1922 3394 2156 3267 
Q 2391 3141 2538 2938 
L 2538 4581 
L 3097 4581 
L 3097 0 
L 2575 0 
z
M 797 1656 
Q 797 1019 1065 703 
Q 1334 388 1700 388 
Q 2069 388 2326 689 
Q 2584 991 2584 1609 
Q 2584 2291 2321 2609 
Q 2059 2928 1675 2928 
Q 1300 2928 1048 2622 
Q 797 2316 797 1656 
z
" transform="scale(0.015625)"/>
      </defs>
      <use xlink:href="#ArialMT-50"/>
      <use xlink:href="#ArialMT-61" x="66.699219"/>
      <use xlink:href="#ArialMT-72" x="122.314453"/>
      <use xlink:href="#ArialMT-74" x="155.615234"/>
      <use xlink:href="#ArialMT-69" x="183.398438"/>
      <use xlink:href="#ArialMT-61" x="205.615234"/>
      <use xlink:href="#ArialMT-6c" x="261.230469"/>
      <use xlink:href="#ArialMT-20" x="283.447266"/>
      <use xlink:href="#ArialMT-64" x="311.230469"/>
      <use xlink:href="#ArialMT-65" x="366.845703"/>
      <use xlink:href="#ArialMT-70" x="422.460938"/>
      <use xlink:href="#ArialMT-65" x="478.076172"/>
      <use xlink:href="#ArialMT-6e" x="533.691406"/>
      <use xlink:href="#ArialMT-64" x="589.306641"/>
      <use xlink:href="#ArialMT-65" x="644.921875"/>
      <use xlink:href="#ArialMT-6e" x="700.537109"/>
      <use xlink:href="#ArialMT-63" x="756.152344"/>
      <use xlink:href="#ArialMT-65" x="806.152344"/>
     </g>
    </g>
   </g>
   <g id="line2d_12">
    <path d="M 69.285953 167.331286 
L 69.758257 169.579454 
L 70.230561 170.904834 
L 70.702865 171.181873 
L 71.175169 171.817482 
L 71.647473 172.324808 
L 72.119777 172.779687 
L 72.592081 173.151009 
L 73.536689 173.449774 
L 74.008993 174.42041 
L 74.953601 175.520007 
L 77.315121 177.224966 
L 77.787425 177.577875 
L 78.259729 178.775803 
L 78.732033 178.799771 
L 79.676641 179.046033 
L 80.148945 179.360791 
L 81.093553 179.946481 
L 81.565857 180.187039 
L 82.982769 181.2074 
L 83.455073 181.431165 
L 84.399681 182.021971 
L 86.288897 182.890834 
L 87.705809 183.106989 
L 88.650417 183.559874 
L 91.484241 184.146482 
L 94.318066 184.899302 
L 96.207282 185.251046 
L 98.096498 186.1536 
L 98.568802 186.354598 
L 100.458018 186.714904 
L 101.402626 187.589039 
L 103.764146 189.789827 
L 104.23645 190.329107 
L 106.59797 190.964497 
L 109.904098 192.618406 
L 111.32101 192.873871 
L 112.265618 192.888938 
L 114.154834 193.122146 
L 116.988658 193.194457 
L 117.460962 193.306877 
L 123.600915 194.443122 
L 124.073219 194.456112 
L 124.545523 194.902422 
L 125.017827 195.125851 
L 133.046995 195.914851 
L 139.186947 196.201195 
L 143.437684 196.203842 
L 148.633028 196.394514 
L 149.105332 196.441302 
L 153.828372 196.442307 
L 154.300676 196.474034 
L 155.717588 197.48032 
L 161.385236 198.086386 
L 161.85754 198.294639 
L 164.691364 198.600534 
L 167.997492 198.735618 
L 169.414405 198.812221 
L 179.805093 199.043475 
L 183.111221 199.183631 
L 185.472741 199.13175 
L 197.752646 199.200396 
L 200.114166 199.175332 
L 202.475686 199.32835 
L 208.143334 199.446348 
L 218.061718 199.373167 
L 224.673975 200.458614 
L 227.035495 200.610025 
L 239.787703 200.923571 
L 240.260007 201.082763 
L 247.816872 201.393577 
L 258.679864 201.837711 
L 279.461241 202.265556 
L 288.907321 202.313595 
L 297.408794 202.236964 
L 297.881098 201.928221 
L 309.216394 202.255734 
L 314.411738 202.547309 
L 339.680003 202.956357 
" clip-path="url(#p61a8a4303f)" style="fill: none; stroke: #4c72b0; stroke-width: 1.5; stroke-linecap: round"/>
   </g>
   <g id="LineCollection_1">
    <path d="M 71.647473 312.4575 
L 71.647473 298.814625 
" clip-path="url(#p61a8a4303f)" style="fill: none; stroke: #1a1a1a; stroke-width: 1.5"/>
    <path d="M 74.953601 312.4575 
L 74.953601 298.814625 
" clip-path="url(#p61a8a4303f)" style="fill: none; stroke: #1a1a1a; stroke-width: 1.5"/>
    <path d="M 81.093553 312.4575 
L 81.093553 298.814625 
" clip-path="url(#p61a8a4303f)" style="fill: none; stroke: #1a1a1a; stroke-width: 1.5"/>
    <path d="M 88.650417 312.4575 
L 88.650417 298.814625 
" clip-path="url(#p61a8a4303f)" style="fill: none; stroke: #1a1a1a; stroke-width: 1.5"/>
    <path d="M 106.59797 312.4575 
L 106.59797 298.814625 
" clip-path="url(#p61a8a4303f)" style="fill: none; stroke: #1a1a1a; stroke-width: 1.5"/>
    <path d="M 124.545523 312.4575 
L 124.545523 298.814625 
" clip-path="url(#p61a8a4303f)" style="fill: none; stroke: #1a1a1a; stroke-width: 1.5"/>
    <path d="M 161.85754 312.4575 
L 161.85754 298.814625 
" clip-path="url(#p61a8a4303f)" style="fill: none; stroke: #1a1a1a; stroke-width: 1.5"/>
    <path d="M 218.061718 312.4575 
L 218.061718 298.814625 
" clip-path="url(#p61a8a4303f)" style="fill: none; stroke: #1a1a1a; stroke-width: 1.5"/>
    <path d="M 309.216394 312.4575 
L 309.216394 298.814625 
" clip-path="url(#p61a8a4303f)" style="fill: none; stroke: #1a1a1a; stroke-width: 1.5"/>
   </g>
   <g id="patch_3">
    <path d="M 55.76625 312.4575 
L 55.76625 39.6 
" style="fill: none; stroke: #cccccc; stroke-width: 1.25; stroke-linejoin: miter; stroke-linecap: square"/>
   </g>
   <g id="patch_4">
    <path d="M 353.199706 312.4575 
L 353.199706 39.6 
" style="fill: none; stroke: #cccccc; stroke-width: 1.25; stroke-linejoin: miter; stroke-linecap: square"/>
   </g>
   <g id="patch_5">
    <path d="M 55.76625 312.4575 
L 353.199706 312.4575 
" style="fill: none; stroke: #cccccc; stroke-width: 1.25; stroke-linejoin: miter; stroke-linecap: square"/>
   </g>
   <g id="patch_6">
    <path d="M 55.76625 39.6 
L 353.199706 39.6 
" style="fill: none; stroke: #cccccc; stroke-width: 1.25; stroke-linejoin: miter; stroke-linecap: square"/>
   </g>
  </g>
  <g id="axes_3">
   <g id="patch_7">
    <path d="M 412.686397 312.4575 
L 710.119853 312.4575 
L 710.119853 39.6 
L 412.686397 39.6 
z
" style="fill: #ffffff"/>
   </g>
   <g id="matplotlib.axis_3">
    <g id="xtick_8">
     <g id="line2d_13">
      <path d="M 441.512777 312.4575 
L 441.512777 39.6 
" clip-path="url(#p64ecb7a1ce)" style="fill: none; stroke: #cccccc; stroke-linecap: round"/>
     </g>
     <g id="text_14">
      <!-- −1.5 -->
      <g style="fill: #262626" transform="translate(430.655434 329.831094) scale(0.11 -0.11)">
       <use xlink:href="#ArialMT-2212"/>
       <use xlink:href="#ArialMT-31" x="58.398438"/>
       <use xlink:href="#ArialMT-2e" x="114.013672"/>
       <use xlink:href="#ArialMT-35" x="141.796875"/>
      </g>
     </g>
    </g>
    <g id="xtick_9">
     <g id="line2d_14">
      <path d="M 483.126726 312.4575 
L 483.126726 39.6 
" clip-path="url(#p64ecb7a1ce)" style="fill: none; stroke: #cccccc; stroke-linecap: round"/>
     </g>
     <g id="text_15">
      <!-- −1.0 -->
      <g style="fill: #262626" transform="translate(472.269382 329.831094) scale(0.11 -0.11)">
       <use xlink:href="#ArialMT-2212"/>
       <use xlink:href="#ArialMT-31" x="58.398438"/>
       <use xlink:href="#ArialMT-2e" x="114.013672"/>
       <use xlink:href="#ArialMT-30" x="141.796875"/>
      </g>
     </g>
    </g>
    <g id="xtick_10">
     <g id="line2d_15">
      <path d="M 524.740675 312.4575 
L 524.740675 39.6 
" clip-path="url(#p64ecb7a1ce)" style="fill: none; stroke: #cccccc; stroke-linecap: round"/>
     </g>
     <g id="text_16">
      <!-- −0.5 -->
      <g style="fill: #262626" transform="translate(513.883331 329.831094) scale(0.11 -0.11)">
       <use xlink:href="#ArialMT-2212"/>
       <use xlink:href="#ArialMT-30" x="58.398438"/>
       <use xlink:href="#ArialMT-2e" x="114.013672"/>
       <use xlink:href="#ArialMT-35" x="141.796875"/>
      </g>
     </g>
    </g>
    <g id="xtick_11">
     <g id="line2d_16">
      <path d="M 566.354623 312.4575 
L 566.354623 39.6 
" clip-path="url(#p64ecb7a1ce)" style="fill: none; stroke: #cccccc; stroke-linecap: round"/>
     </g>
     <g id="text_17">
      <!-- 0.0 -->
      <g style="fill: #262626" transform="translate(558.709623 329.831094) scale(0.11 -0.11)">
       <use xlink:href="#ArialMT-30"/>
       <use xlink:href="#ArialMT-2e" x="55.615234"/>
       <use xlink:href="#ArialMT-30" x="83.398438"/>
      </g>
     </g>
    </g>
    <g id="xtick_12">
     <g id="line2d_17">
      <path d="M 607.968572 312.4575 
L 607.968572 39.6 
" clip-path="url(#p64ecb7a1ce)" style="fill: none; stroke: #cccccc; stroke-linecap: round"/>
     </g>
     <g id="text_18">
      <!-- 0.5 -->
      <g style="fill: #262626" transform="translate(600.323572 329.831094) scale(0.11 -0.11)">
       <use xlink:href="#ArialMT-30"/>
       <use xlink:href="#ArialMT-2e" x="55.615234"/>
       <use xlink:href="#ArialMT-35" x="83.398438"/>
      </g>
     </g>
    </g>
    <g id="xtick_13">
     <g id="line2d_18">
      <path d="M 649.582521 312.4575 
L 649.582521 39.6 
" clip-path="url(#p64ecb7a1ce)" style="fill: none; stroke: #cccccc; stroke-linecap: round"/>
     </g>
     <g id="text_19">
      <!-- 1.0 -->
      <g style="fill: #262626" transform="translate(641.937521 329.831094) scale(0.11 -0.11)">
       <use xlink:href="#ArialMT-31"/>
       <use xlink:href="#ArialMT-2e" x="55.615234"/>
       <use xlink:href="#ArialMT-30" x="83.398438"/>
      </g>
     </g>
    </g>
    <g id="xtick_14">
     <g id="line2d_19">
      <path d="M 691.19647 312.4575 
L 691.19647 39.6 
" clip-path="url(#p64ecb7a1ce)" style="fill: none; stroke: #cccccc; stroke-linecap: round"/>
     </g>
     <g id="text_20">
      <!-- 1.5 -->
      <g style="fill: #262626" transform="translate(683.55147 329.831094) scale(0.11 -0.11)">
       <use xlink:href="#ArialMT-31"/>
       <use xlink:href="#ArialMT-2e" x="55.615234"/>
       <use xlink:href="#ArialMT-35" x="83.398438"/>
      </g>
     </g>
    </g>
    <g id="text_21">
     <!-- num__max_temp -->
     <g style="fill: #262626" transform="translate(515.050313 344.606719) scale(0.12 -0.12)">
      <defs>
       <path id="ArialMT-78" d="M 47 0 
L 1259 1725 
L 138 3319 
L 841 3319 
L 1350 2541 
Q 1494 2319 1581 2169 
Q 1719 2375 1834 2534 
L 2394 3319 
L 3066 3319 
L 1919 1756 
L 3153 0 
L 2463 0 
L 1781 1031 
L 1600 1309 
L 728 0 
L 47 0 
z
" transform="scale(0.015625)"/>
      </defs>
      <use xlink:href="#ArialMT-6e"/>
      <use xlink:href="#ArialMT-75" x="55.615234"/>
      <use xlink:href="#ArialMT-6d" x="111.230469"/>
      <use xlink:href="#ArialMT-5f" x="194.53125"/>
      <use xlink:href="#ArialMT-5f" x="250.146484"/>
      <use xlink:href="#ArialMT-6d" x="305.761719"/>
      <use xlink:href="#ArialMT-61" x="389.0625"/>
      <use xlink:href="#ArialMT-78" x="444.677734"/>
      <use xlink:href="#ArialMT-5f" x="494.677734"/>
      <use xlink:href="#ArialMT-74" x="550.292969"/>
      <use xlink:href="#ArialMT-65" x="578.076172"/>
      <use xlink:href="#ArialMT-6d" x="633.691406"/>
      <use xlink:href="#ArialMT-70" x="716.992188"/>
     </g>
    </g>
   </g>
   <g id="matplotlib.axis_4">
    <g id="ytick_5">
     <g id="line2d_20">
      <path d="M 412.686397 261.365338 
L 710.119853 261.365338 
" clip-path="url(#p64ecb7a1ce)" style="fill: none; stroke: #cccccc; stroke-linecap: round"/>
     </g>
    </g>
    <g id="ytick_6">
     <g id="line2d_21">
      <path d="M 412.686397 202.331199 
L 710.119853 202.331199 
" clip-path="url(#p64ecb7a1ce)" style="fill: none; stroke: #cccccc; stroke-linecap: round"/>
     </g>
    </g>
    <g id="ytick_7">
     <g id="line2d_22">
      <path d="M 412.686397 143.297061 
L 710.119853 143.297061 
" clip-path="url(#p64ecb7a1ce)" style="fill: none; stroke: #cccccc; stroke-linecap: round"/>
     </g>
    </g>
    <g id="ytick_8">
     <g id="line2d_23">
      <path d="M 412.686397 84.262922 
L 710.119853 84.262922 
" clip-path="url(#p64ecb7a1ce)" style="fill: none; stroke: #cccccc; stroke-linecap: round"/>
     </g>
    </g>
   </g>
   <g id="line2d_24">
    <path d="M 426.2061 295.320083 
L 432.815732 297.669648 
L 438.223613 297.562096 
L 441.227991 298.369985 
L 444.23237 298.592688 
L 444.833245 298.954049 
L 445.434121 299.249994 
L 448.438499 299.42873 
L 449.039375 299.8864 
L 451.442878 300.050852 
L 452.043753 300.054886 
L 453.84638 299.397501 
L 458.653386 299.49607 
L 461.657764 299.40605 
L 462.25864 299.30029 
L 464.662142 298.500962 
L 471.271775 297.174083 
L 478.482283 296.269803 
L 480.885785 295.262116 
L 481.486661 295.644583 
L 482.688412 295.766745 
L 483.289288 295.759809 
L 485.091915 295.181281 
L 486.293666 295.072212 
L 487.495418 294.591419 
L 489.298045 293.454554 
L 492.903299 291.930598 
L 498.31118 291.405067 
L 503.719061 290.708144 
L 510.328693 288.551537 
L 513.333072 288.138856 
L 516.33745 286.426384 
L 518.140077 282.159377 
L 521.144455 281.338215 
L 521.745331 281.105255 
L 524.749709 275.361187 
L 527.754088 275.513761 
L 528.354963 271.811828 
L 537.368098 270.534979 
L 540.973352 268.670042 
L 542.775979 267.741519 
L 546.381233 262.338781 
L 551.188239 240.681764 
L 552.38999 167.110624 
L 552.990866 165.600246 
L 553.591741 165.420514 
L 563.205752 157.682923 
L 566.21013 156.605613 
L 570.41626 154.167886 
L 571.017136 151.7028 
L 572.218887 149.404794 
L 578.227644 147.723994 
L 580.030271 145.040544 
L 586.639903 139.724979 
L 589.644281 130.840237 
L 590.245157 117.530351 
L 594.451287 115.842722 
L 596.253914 112.599661 
L 596.854789 110.563516 
L 599.859168 100.111751 
L 601.661795 96.02961 
L 604.666173 89.154522 
L 618.486314 86.061374 
L 626.297697 82.913897 
L 629.902951 82.113528 
L 636.512584 81.226969 
L 640.718713 80.595896 
L 643.122216 80.385495 
L 647.328346 77.808122 
L 648.530097 77.516199 
L 650.332724 75.355366 
L 650.9336 75.035555 
L 652.736227 73.582251 
L 653.937978 72.845868 
L 655.139729 72.744264 
L 656.942356 72.467396 
L 661.148486 71.817369 
L 662.350237 71.607994 
L 664.152864 69.920382 
L 665.354616 69.561266 
L 665.955491 68.907576 
L 670.161621 65.48042 
L 671.363372 65.008743 
L 677.372129 63.050789 
L 678.57388 60.982218 
L 680.376507 59.923072 
L 682.179134 58.673498 
L 682.78001 58.451947 
L 683.380886 57.018204 
L 683.981761 56.920325 
L 685.183513 56.7468 
L 687.587015 56.558487 
L 688.788767 56.395363 
L 692.994896 55.161517 
L 693.595772 53.837402 
L 695.398399 53.250607 
L 696.60015 52.002614 
" clip-path="url(#p64ecb7a1ce)" style="fill: none; stroke: #4c72b0; stroke-width: 1.5; stroke-linecap: round"/>
   </g>
   <g id="LineCollection_2">
    <path d="M 452.043753 312.4575 
L 452.043753 298.814625 
" clip-path="url(#p64ecb7a1ce)" style="fill: none; stroke: #1a1a1a; stroke-width: 1.5"/>
    <path d="M 482.688412 312.4575 
L 482.688412 298.814625 
" clip-path="url(#p64ecb7a1ce)" style="fill: none; stroke: #1a1a1a; stroke-width: 1.5"/>
    <path d="M 510.328693 312.4575 
L 510.328693 298.814625 
" clip-path="url(#p64ecb7a1ce)" style="fill: none; stroke: #1a1a1a; stroke-width: 1.5"/>
    <path d="M 528.354963 312.4575 
L 528.354963 298.814625 
" clip-path="url(#p64ecb7a1ce)" style="fill: none; stroke: #1a1a1a; stroke-width: 1.5"/>
    <path d="M 552.990866 312.4575 
L 552.990866 298.814625 
" clip-path="url(#p64ecb7a1ce)" style="fill: none; stroke: #1a1a1a; stroke-width: 1.5"/>
    <path d="M 590.245157 312.4575 
L 590.245157 298.814625 
" clip-path="url(#p64ecb7a1ce)" style="fill: none; stroke: #1a1a1a; stroke-width: 1.5"/>
    <path d="M 640.718713 312.4575 
L 640.718713 298.814625 
" clip-path="url(#p64ecb7a1ce)" style="fill: none; stroke: #1a1a1a; stroke-width: 1.5"/>
    <path d="M 661.148486 312.4575 
L 661.148486 298.814625 
" clip-path="url(#p64ecb7a1ce)" style="fill: none; stroke: #1a1a1a; stroke-width: 1.5"/>
    <path d="M 682.179134 312.4575 
L 682.179134 298.814625 
" clip-path="url(#p64ecb7a1ce)" style="fill: none; stroke: #1a1a1a; stroke-width: 1.5"/>
   </g>
   <g id="patch_8">
    <path d="M 412.686397 312.4575 
L 412.686397 39.6 
" style="fill: none; stroke: #cccccc; stroke-width: 1.25; stroke-linejoin: miter; stroke-linecap: square"/>
   </g>
   <g id="patch_9">
    <path d="M 710.119853 312.4575 
L 710.119853 39.6 
" style="fill: none; stroke: #cccccc; stroke-width: 1.25; stroke-linejoin: miter; stroke-linecap: square"/>
   </g>
   <g id="patch_10">
    <path d="M 412.686397 312.4575 
L 710.119853 312.4575 
" style="fill: none; stroke: #cccccc; stroke-width: 1.25; stroke-linejoin: miter; stroke-linecap: square"/>
   </g>
   <g id="patch_11">
    <path d="M 412.686397 39.6 
L 710.119853 39.6 
" style="fill: none; stroke: #cccccc; stroke-width: 1.25; stroke-linejoin: miter; stroke-linecap: square"/>
   </g>
  </g>
  <g id="axes_4">
   <g id="patch_12">
    <path d="M 769.606544 312.4575 
L 1067.04 312.4575 
L 1067.04 39.6 
L 769.606544 39.6 
z
" style="fill: #ffffff"/>
   </g>
   <g id="matplotlib.axis_5">
    <g id="xtick_15">
     <g id="line2d_25">
      <path d="M 770.458368 312.4575 
L 770.458368 39.6 
" clip-path="url(#p170e1be65c)" style="fill: none; stroke: #cccccc; stroke-linecap: round"/>
     </g>
     <g id="text_22">
      <!-- −1.5 -->
      <g style="fill: #262626" transform="translate(759.601024 329.831094) scale(0.11 -0.11)">
       <use xlink:href="#ArialMT-2212"/>
       <use xlink:href="#ArialMT-31" x="58.398438"/>
       <use xlink:href="#ArialMT-2e" x="114.013672"/>
       <use xlink:href="#ArialMT-35" x="141.796875"/>
      </g>
     </g>
    </g>
    <g id="xtick_16">
     <g id="line2d_26">
      <path d="M 811.348875 312.4575 
L 811.348875 39.6 
" clip-path="url(#p170e1be65c)" style="fill: none; stroke: #cccccc; stroke-linecap: round"/>
     </g>
     <g id="text_23">
      <!-- −1.0 -->
      <g style="fill: #262626" transform="translate(800.491531 329.831094) scale(0.11 -0.11)">
       <use xlink:href="#ArialMT-2212"/>
       <use xlink:href="#ArialMT-31" x="58.398438"/>
       <use xlink:href="#ArialMT-2e" x="114.013672"/>
       <use xlink:href="#ArialMT-30" x="141.796875"/>
      </g>
     </g>
    </g>
    <g id="xtick_17">
     <g id="line2d_27">
      <path d="M 852.239381 312.4575 
L 852.239381 39.6 
" clip-path="url(#p170e1be65c)" style="fill: none; stroke: #cccccc; stroke-linecap: round"/>
     </g>
     <g id="text_24">
      <!-- −0.5 -->
      <g style="fill: #262626" transform="translate(841.382037 329.831094) scale(0.11 -0.11)">
       <use xlink:href="#ArialMT-2212"/>
       <use xlink:href="#ArialMT-30" x="58.398438"/>
       <use xlink:href="#ArialMT-2e" x="114.013672"/>
       <use xlink:href="#ArialMT-35" x="141.796875"/>
      </g>
     </g>
    </g>
    <g id="xtick_18">
     <g id="line2d_28">
      <path d="M 893.129887 312.4575 
L 893.129887 39.6 
" clip-path="url(#p170e1be65c)" style="fill: none; stroke: #cccccc; stroke-linecap: round"/>
     </g>
     <g id="text_25">
      <!-- 0.0 -->
      <g style="fill: #262626" transform="translate(885.484887 329.831094) scale(0.11 -0.11)">
       <use xlink:href="#ArialMT-30"/>
       <use xlink:href="#ArialMT-2e" x="55.615234"/>
       <use xlink:href="#ArialMT-30" x="83.398438"/>
      </g>
     </g>
    </g>
    <g id="xtick_19">
     <g id="line2d_29">
      <path d="M 934.020394 312.4575 
L 934.020394 39.6 
" clip-path="url(#p170e1be65c)" style="fill: none; stroke: #cccccc; stroke-linecap: round"/>
     </g>
     <g id="text_26">
      <!-- 0.5 -->
      <g style="fill: #262626" transform="translate(926.375394 329.831094) scale(0.11 -0.11)">
       <use xlink:href="#ArialMT-30"/>
       <use xlink:href="#ArialMT-2e" x="55.615234"/>
       <use xlink:href="#ArialMT-35" x="83.398438"/>
      </g>
     </g>
    </g>
    <g id="xtick_20">
     <g id="line2d_30">
      <path d="M 974.9109 312.4575 
L 974.9109 39.6 
" clip-path="url(#p170e1be65c)" style="fill: none; stroke: #cccccc; stroke-linecap: round"/>
     </g>
     <g id="text_27">
      <!-- 1.0 -->
      <g style="fill: #262626" transform="translate(967.2659 329.831094) scale(0.11 -0.11)">
       <use xlink:href="#ArialMT-31"/>
       <use xlink:href="#ArialMT-2e" x="55.615234"/>
       <use xlink:href="#ArialMT-30" x="83.398438"/>
      </g>
     </g>
    </g>
    <g id="xtick_21">
     <g id="line2d_31">
      <path d="M 1015.801407 312.4575 
L 1015.801407 39.6 
" clip-path="url(#p170e1be65c)" style="fill: none; stroke: #cccccc; stroke-linecap: round"/>
     </g>
     <g id="text_28">
      <!-- 1.5 -->
      <g style="fill: #262626" transform="translate(1008.156407 329.831094) scale(0.11 -0.11)">
       <use xlink:href="#ArialMT-31"/>
       <use xlink:href="#ArialMT-2e" x="55.615234"/>
       <use xlink:href="#ArialMT-35" x="83.398438"/>
      </g>
     </g>
    </g>
    <g id="xtick_22">
     <g id="line2d_32">
      <path d="M 1056.691913 312.4575 
L 1056.691913 39.6 
" clip-path="url(#p170e1be65c)" style="fill: none; stroke: #cccccc; stroke-linecap: round"/>
     </g>
     <g id="text_29">
      <!-- 2.0 -->
      <g style="fill: #262626" transform="translate(1049.046913 329.831094) scale(0.11 -0.11)">
       <use xlink:href="#ArialMT-32"/>
       <use xlink:href="#ArialMT-2e" x="55.615234"/>
       <use xlink:href="#ArialMT-30" x="83.398438"/>
      </g>
     </g>
    </g>
    <g id="text_30">
     <!-- num__palmer_hydro -->
     <g style="fill: #262626" transform="translate(863.29671 344.606719) scale(0.12 -0.12)">
      <defs>
       <path id="ArialMT-68" d="M 422 0 
L 422 4581 
L 984 4581 
L 984 2938 
Q 1378 3394 1978 3394 
Q 2347 3394 2619 3248 
Q 2891 3103 3008 2847 
Q 3125 2591 3125 2103 
L 3125 0 
L 2563 0 
L 2563 2103 
Q 2563 2525 2380 2717 
Q 2197 2909 1863 2909 
Q 1613 2909 1392 2779 
Q 1172 2650 1078 2428 
Q 984 2206 984 1816 
L 984 0 
L 422 0 
z
" transform="scale(0.015625)"/>
       <path id="ArialMT-79" d="M 397 -1278 
L 334 -750 
Q 519 -800 656 -800 
Q 844 -800 956 -737 
Q 1069 -675 1141 -563 
Q 1194 -478 1313 -144 
Q 1328 -97 1363 -6 
L 103 3319 
L 709 3319 
L 1400 1397 
Q 1534 1031 1641 628 
Q 1738 1016 1872 1384 
L 2581 3319 
L 3144 3319 
L 1881 -56 
Q 1678 -603 1566 -809 
Q 1416 -1088 1222 -1217 
Q 1028 -1347 759 -1347 
Q 597 -1347 397 -1278 
z
" transform="scale(0.015625)"/>
       <path id="ArialMT-6f" d="M 213 1659 
Q 213 2581 725 3025 
Q 1153 3394 1769 3394 
Q 2453 3394 2887 2945 
Q 3322 2497 3322 1706 
Q 3322 1066 3130 698 
Q 2938 331 2570 128 
Q 2203 -75 1769 -75 
Q 1072 -75 642 372 
Q 213 819 213 1659 
z
M 791 1659 
Q 791 1022 1069 705 
Q 1347 388 1769 388 
Q 2188 388 2466 706 
Q 2744 1025 2744 1678 
Q 2744 2294 2464 2611 
Q 2184 2928 1769 2928 
Q 1347 2928 1069 2612 
Q 791 2297 791 1659 
z
" transform="scale(0.015625)"/>
      </defs>
      <use xlink:href="#ArialMT-6e"/>
      <use xlink:href="#ArialMT-75" x="55.615234"/>
      <use xlink:href="#ArialMT-6d" x="111.230469"/>
      <use xlink:href="#ArialMT-5f" x="194.53125"/>
      <use xlink:href="#ArialMT-5f" x="250.146484"/>
      <use xlink:href="#ArialMT-70" x="305.761719"/>
      <use xlink:href="#ArialMT-61" x="361.376953"/>
      <use xlink:href="#ArialMT-6c" x="416.992188"/>
      <use xlink:href="#ArialMT-6d" x="439.208984"/>
      <use xlink:href="#ArialMT-65" x="522.509766"/>
      <use xlink:href="#ArialMT-72" x="578.125"/>
      <use xlink:href="#ArialMT-5f" x="611.425781"/>
      <use xlink:href="#ArialMT-68" x="667.041016"/>
      <use xlink:href="#ArialMT-79" x="722.65625"/>
      <use xlink:href="#ArialMT-64" x="772.65625"/>
      <use xlink:href="#ArialMT-72" x="828.271484"/>
      <use xlink:href="#ArialMT-6f" x="861.572266"/>
     </g>
    </g>
   </g>
   <g id="matplotlib.axis_6">
    <g id="ytick_9">
     <g id="line2d_33">
      <path d="M 769.606544 261.365338 
L 1067.04 261.365338 
" clip-path="url(#p170e1be65c)" style="fill: none; stroke: #cccccc; stroke-linecap: round"/>
     </g>
    </g>
    <g id="ytick_10">
     <g id="line2d_34">
      <path d="M 769.606544 202.331199 
L 1067.04 202.331199 
" clip-path="url(#p170e1be65c)" style="fill: none; stroke: #cccccc; stroke-linecap: round"/>
     </g>
    </g>
    <g id="ytick_11">
     <g id="line2d_35">
      <path d="M 769.606544 143.297061 
L 1067.04 143.297061 
" clip-path="url(#p170e1be65c)" style="fill: none; stroke: #cccccc; stroke-linecap: round"/>
     </g>
    </g>
    <g id="ytick_12">
     <g id="line2d_36">
      <path d="M 769.606544 84.262922 
L 1067.04 84.262922 
" clip-path="url(#p170e1be65c)" style="fill: none; stroke: #cccccc; stroke-linecap: round"/>
     </g>
    </g>
   </g>
   <g id="line2d_37">
    <path d="M 783.126247 159.721745 
L 785.8575 160.448448 
L 788.588753 160.44412 
L 791.320006 160.896918 
L 794.051259 162.772426 
L 796.782512 163.886484 
L 799.513765 164.302272 
L 802.245018 166.100336 
L 804.976271 167.071814 
L 807.707524 167.459904 
L 810.438777 171.351225 
L 813.17003 172.695146 
L 815.901283 175.040992 
L 818.632536 178.016281 
L 821.363789 180.074507 
L 824.095042 181.669601 
L 826.826295 187.448507 
L 829.557548 188.00765 
L 832.288801 189.907623 
L 835.020054 191.847215 
L 837.751307 192.17018 
L 840.48256 192.04514 
L 843.213814 192.082453 
L 845.945067 192.118815 
L 848.67632 192.117957 
L 851.407573 192.494746 
L 854.138826 192.53877 
L 856.870079 192.791905 
L 859.601332 192.880529 
L 862.332585 192.942837 
L 865.063838 193.294209 
L 867.795091 193.40173 
L 870.526344 193.517421 
L 873.257597 193.490237 
L 875.98885 193.427084 
L 878.720103 193.251324 
L 881.451356 192.503417 
L 884.182609 191.825471 
L 886.913862 191.746653 
L 889.645115 191.772171 
L 892.376368 191.630609 
L 895.107621 191.858665 
L 897.838874 192.000183 
L 900.570127 192.165577 
L 903.30138 192.225474 
L 906.032633 192.299136 
L 908.763886 192.439635 
L 911.495139 192.407437 
L 914.226393 192.317647 
L 916.957646 192.024345 
L 919.688899 191.576402 
L 922.420152 191.577382 
L 925.151405 191.551935 
L 927.882658 191.583638 
L 930.613911 191.969702 
L 933.345164 192.618596 
L 936.076417 192.654721 
L 938.80767 192.609882 
L 941.538923 192.903576 
L 944.270176 192.940835 
L 947.001429 192.806323 
L 949.732682 192.792148 
L 952.463935 192.786711 
L 955.195188 192.700225 
L 957.926441 192.641917 
L 960.657694 192.439154 
L 963.388947 192.421845 
L 966.1202 192.511457 
L 968.851453 192.431399 
L 971.582706 192.318437 
L 974.313959 192.295912 
L 977.045212 192.356163 
L 979.776465 192.438207 
L 982.507718 192.473582 
L 985.238971 192.572793 
L 987.970225 192.612276 
L 990.701478 192.601853 
L 993.432731 192.605402 
L 996.163984 192.478038 
L 998.895237 192.508001 
L 1001.62649 192.709707 
L 1004.357743 192.711626 
L 1007.088996 192.59385 
L 1009.820249 192.471086 
L 1012.551502 192.378635 
L 1015.282755 192.18438 
L 1018.014008 192.244099 
L 1020.745261 192.276577 
L 1023.476514 192.234892 
L 1026.207767 192.218789 
L 1028.93902 192.426599 
L 1031.670273 192.503709 
L 1034.401526 192.532619 
L 1037.132779 192.397423 
L 1039.864032 191.918148 
L 1042.595285 190.989176 
L 1045.326538 190.782917 
L 1048.057791 188.878411 
L 1050.789044 186.356022 
L 1053.520297 185.970141 
" clip-path="url(#p170e1be65c)" style="fill: none; stroke: #4c72b0; stroke-width: 1.5; stroke-linecap: round"/>
   </g>
   <g id="LineCollection_3">
    <path d="M 806.918684 312.4575 
L 806.918684 298.814625 
" clip-path="url(#p170e1be65c)" style="fill: none; stroke: #1a1a1a; stroke-width: 1.5"/>
    <path d="M 825.672723 312.4575 
L 825.672723 298.814625 
" clip-path="url(#p170e1be65c)" style="fill: none; stroke: #1a1a1a; stroke-width: 1.5"/>
    <path d="M 836.309342 312.4575 
L 836.309342 298.814625 
" clip-path="url(#p170e1be65c)" style="fill: none; stroke: #1a1a1a; stroke-width: 1.5"/>
    <path d="M 852.824092 312.4575 
L 852.824092 298.814625 
" clip-path="url(#p170e1be65c)" style="fill: none; stroke: #1a1a1a; stroke-width: 1.5"/>
    <path d="M 879.695551 312.4575 
L 879.695551 298.814625 
" clip-path="url(#p170e1be65c)" style="fill: none; stroke: #1a1a1a; stroke-width: 1.5"/>
    <path d="M 894.250924 312.4575 
L 894.250924 298.814625 
" clip-path="url(#p170e1be65c)" style="fill: none; stroke: #1a1a1a; stroke-width: 1.5"/>
    <path d="M 915.524162 312.4575 
L 915.524162 298.814625 
" clip-path="url(#p170e1be65c)" style="fill: none; stroke: #1a1a1a; stroke-width: 1.5"/>
    <path d="M 942.955442 312.4575 
L 942.955442 298.814625 
" clip-path="url(#p170e1be65c)" style="fill: none; stroke: #1a1a1a; stroke-width: 1.5"/>
    <path d="M 1033.646615 312.4575 
L 1033.646615 298.814625 
" clip-path="url(#p170e1be65c)" style="fill: none; stroke: #1a1a1a; stroke-width: 1.5"/>
   </g>
   <g id="patch_13">
    <path d="M 769.606544 312.4575 
L 769.606544 39.6 
" style="fill: none; stroke: #cccccc; stroke-width: 1.25; stroke-linejoin: miter; stroke-linecap: square"/>
   </g>
   <g id="patch_14">
    <path d="M 1067.04 312.4575 
L 1067.04 39.6 
" style="fill: none; stroke: #cccccc; stroke-width: 1.25; stroke-linejoin: miter; stroke-linecap: square"/>
   </g>
   <g id="patch_15">
    <path d="M 769.606544 312.4575 
L 1067.04 312.4575 
" style="fill: none; stroke: #cccccc; stroke-width: 1.25; stroke-linejoin: miter; stroke-linecap: square"/>
   </g>
   <g id="patch_16">
    <path d="M 769.606544 39.6 
L 1067.04 39.6 
" style="fill: none; stroke: #cccccc; stroke-width: 1.25; stroke-linejoin: miter; stroke-linecap: square"/>
   </g>
  </g>
  <g id="text_31">
   <!-- Partial Dependence of Water Usage on Key Climate Variables -->
   <g style="fill: #262626" transform="translate(342.709875 17.68275) scale(0.144 -0.144)">
    <defs>
     <path id="ArialMT-44" d="M 494 0 
L 494 4581 
L 2072 4581 
Q 2606 4581 2888 4516 
Q 3281 4425 3559 4188 
Q 3922 3881 4101 3404 
Q 4281 2928 4281 2316 
Q 4281 1794 4159 1391 
Q 4038 988 3847 723 
Q 3656 459 3429 307 
Q 3203 156 2883 78 
Q 2563 0 2147 0 
L 494 0 
z
M 1100 541 
L 2078 541 
Q 2531 541 2789 625 
Q 3047 709 3200 863 
Q 3416 1078 3536 1442 
Q 3656 1806 3656 2325 
Q 3656 3044 3420 3430 
Q 3184 3816 2847 3947 
Q 2603 4041 2063 4041 
L 1100 4041 
L 1100 541 
z
" transform="scale(0.015625)"/>
     <path id="ArialMT-66" d="M 556 0 
L 556 2881 
L 59 2881 
L 59 3319 
L 556 3319 
L 556 3672 
Q 556 4006 616 4169 
Q 697 4388 901 4523 
Q 1106 4659 1475 4659 
Q 1713 4659 2000 4603 
L 1916 4113 
Q 1741 4144 1584 4144 
Q 1328 4144 1222 4034 
Q 1116 3925 1116 3625 
L 1116 3319 
L 1763 3319 
L 1763 2881 
L 1116 2881 
L 1116 0 
L 556 0 
z
" transform="scale(0.015625)"/>
     <path id="ArialMT-57" d="M 1294 0 
L 78 4581 
L 700 4581 
L 1397 1578 
Q 1509 1106 1591 641 
Q 1766 1375 1797 1488 
L 2669 4581 
L 3400 4581 
L 4056 2263 
Q 4303 1400 4413 641 
Q 4500 1075 4641 1638 
L 5359 4581 
L 5969 4581 
L 4713 0 
L 4128 0 
L 3163 3491 
Q 3041 3928 3019 4028 
Q 2947 3713 2884 3491 
L 1913 0 
L 1294 0 
z
" transform="scale(0.015625)"/>
     <path id="ArialMT-55" d="M 3500 4581 
L 4106 4581 
L 4106 1934 
Q 4106 1244 3950 837 
Q 3794 431 3386 176 
Q 2978 -78 2316 -78 
Q 1672 -78 1262 144 
Q 853 366 678 786 
Q 503 1206 503 1934 
L 503 4581 
L 1109 4581 
L 1109 1938 
Q 1109 1341 1220 1058 
Q 1331 775 1601 622 
Q 1872 469 2263 469 
Q 2931 469 3215 772 
Q 3500 1075 3500 1938 
L 3500 4581 
z
" transform="scale(0.015625)"/>
     <path id="ArialMT-73" d="M 197 991 
L 753 1078 
Q 800 744 1014 566 
Q 1228 388 1613 388 
Q 2000 388 2187 545 
Q 2375 703 2375 916 
Q 2375 1106 2209 1216 
Q 2094 1291 1634 1406 
Q 1016 1563 777 1677 
Q 538 1791 414 1992 
Q 291 2194 291 2438 
Q 291 2659 392 2848 
Q 494 3038 669 3163 
Q 800 3259 1026 3326 
Q 1253 3394 1513 3394 
Q 1903 3394 2198 3281 
Q 2494 3169 2634 2976 
Q 2775 2784 2828 2463 
L 2278 2388 
Q 2241 2644 2061 2787 
Q 1881 2931 1553 2931 
Q 1166 2931 1000 2803 
Q 834 2675 834 2503 
Q 834 2394 903 2306 
Q 972 2216 1119 2156 
Q 1203 2125 1616 2013 
Q 2213 1853 2448 1751 
Q 2684 1650 2818 1456 
Q 2953 1263 2953 975 
Q 2953 694 2789 445 
Q 2625 197 2315 61 
Q 2006 -75 1616 -75 
Q 969 -75 630 194 
Q 291 463 197 991 
z
" transform="scale(0.015625)"/>
     <path id="ArialMT-67" d="M 319 -275 
L 866 -356 
Q 900 -609 1056 -725 
Q 1266 -881 1628 -881 
Q 2019 -881 2231 -725 
Q 2444 -569 2519 -288 
Q 2563 -116 2559 434 
Q 2191 0 1641 0 
Q 956 0 581 494 
Q 206 988 206 1678 
Q 206 2153 378 2554 
Q 550 2956 876 3175 
Q 1203 3394 1644 3394 
Q 2231 3394 2613 2919 
L 2613 3319 
L 3131 3319 
L 3131 450 
Q 3131 -325 2973 -648 
Q 2816 -972 2473 -1159 
Q 2131 -1347 1631 -1347 
Q 1038 -1347 672 -1080 
Q 306 -813 319 -275 
z
M 784 1719 
Q 784 1066 1043 766 
Q 1303 466 1694 466 
Q 2081 466 2343 764 
Q 2606 1063 2606 1700 
Q 2606 2309 2336 2618 
Q 2066 2928 1684 2928 
Q 1309 2928 1046 2623 
Q 784 2319 784 1719 
z
" transform="scale(0.015625)"/>
     <path id="ArialMT-4b" d="M 469 0 
L 469 4581 
L 1075 4581 
L 1075 2309 
L 3350 4581 
L 4172 4581 
L 2250 2725 
L 4256 0 
L 3456 0 
L 1825 2319 
L 1075 1588 
L 1075 0 
L 469 0 
z
" transform="scale(0.015625)"/>
     <path id="ArialMT-43" d="M 3763 1606 
L 4369 1453 
Q 4178 706 3683 314 
Q 3188 -78 2472 -78 
Q 1731 -78 1267 223 
Q 803 525 561 1097 
Q 319 1669 319 2325 
Q 319 3041 592 3573 
Q 866 4106 1370 4382 
Q 1875 4659 2481 4659 
Q 3169 4659 3637 4309 
Q 4106 3959 4291 3325 
L 3694 3184 
Q 3534 3684 3231 3912 
Q 2928 4141 2469 4141 
Q 1941 4141 1586 3887 
Q 1231 3634 1087 3207 
Q 944 2781 944 2328 
Q 944 1744 1114 1308 
Q 1284 872 1643 656 
Q 2003 441 2422 441 
Q 2931 441 3284 734 
Q 3638 1028 3763 1606 
z
" transform="scale(0.015625)"/>
     <path id="ArialMT-56" d="M 1803 0 
L 28 4581 
L 684 4581 
L 1875 1253 
Q 2019 853 2116 503 
Q 2222 878 2363 1253 
L 3600 4581 
L 4219 4581 
L 2425 0 
L 1803 0 
z
" transform="scale(0.015625)"/>
     <path id="ArialMT-62" d="M 941 0 
L 419 0 
L 419 4581 
L 981 4581 
L 981 2947 
Q 1338 3394 1891 3394 
Q 2197 3394 2470 3270 
Q 2744 3147 2920 2923 
Q 3097 2700 3197 2384 
Q 3297 2069 3297 1709 
Q 3297 856 2875 390 
Q 2453 -75 1863 -75 
Q 1275 -75 941 416 
L 941 0 
z
M 934 1684 
Q 934 1088 1097 822 
Q 1363 388 1816 388 
Q 2184 388 2453 708 
Q 2722 1028 2722 1663 
Q 2722 2313 2464 2622 
Q 2206 2931 1841 2931 
Q 1472 2931 1203 2611 
Q 934 2291 934 1684 
z
" transform="scale(0.015625)"/>
    </defs>
    <use xlink:href="#ArialMT-50"/>
    <use xlink:href="#ArialMT-61" x="66.699219"/>
    <use xlink:href="#ArialMT-72" x="122.314453"/>
    <use xlink:href="#ArialMT-74" x="155.615234"/>
    <use xlink:href="#ArialMT-69" x="183.398438"/>
    <use xlink:href="#ArialMT-61" x="205.615234"/>
    <use xlink:href="#ArialMT-6c" x="261.230469"/>
    <use xlink:href="#ArialMT-20" x="283.447266"/>
    <use xlink:href="#ArialMT-44" x="311.230469"/>
    <use xlink:href="#ArialMT-65" x="383.447266"/>
    <use xlink:href="#ArialMT-70" x="439.0625"/>
    <use xlink:href="#ArialMT-65" x="494.677734"/>
    <use xlink:href="#ArialMT-6e" x="550.292969"/>
    <use xlink:href="#ArialMT-64" x="605.908203"/>
    <use xlink:href="#ArialMT-65" x="661.523438"/>
    <use xlink:href="#ArialMT-6e" x="717.138672"/>
    <use xlink:href="#ArialMT-63" x="772.753906"/>
    <use xlink:href="#ArialMT-65" x="822.753906"/>
    <use xlink:href="#ArialMT-20" x="878.369141"/>
    <use xlink:href="#ArialMT-6f" x="906.152344"/>
    <use xlink:href="#ArialMT-66" x="961.767578"/>
    <use xlink:href="#ArialMT-20" x="989.550781"/>
    <use xlink:href="#ArialMT-57" x="1017.333984"/>
    <use xlink:href="#ArialMT-61" x="1107.96875"/>
    <use xlink:href="#ArialMT-74" x="1163.583984"/>
    <use xlink:href="#ArialMT-65" x="1191.367188"/>
    <use xlink:href="#ArialMT-72" x="1246.982422"/>
    <use xlink:href="#ArialMT-20" x="1280.283203"/>
    <use xlink:href="#ArialMT-55" x="1308.066406"/>
    <use xlink:href="#ArialMT-73" x="1380.283203"/>
    <use xlink:href="#ArialMT-61" x="1430.283203"/>
    <use xlink:href="#ArialMT-67" x="1485.898438"/>
    <use xlink:href="#ArialMT-65" x="1541.513672"/>
    <use xlink:href="#ArialMT-20" x="1597.128906"/>
    <use xlink:href="#ArialMT-6f" x="1624.912109"/>
    <use xlink:href="#ArialMT-6e" x="1680.527344"/>
    <use xlink:href="#ArialMT-20" x="1736.142578"/>
    <use xlink:href="#ArialMT-4b" x="1763.925781"/>
    <use xlink:href="#ArialMT-65" x="1830.625"/>
    <use xlink:href="#ArialMT-79" x="1886.240234"/>
    <use xlink:href="#ArialMT-20" x="1936.240234"/>
    <use xlink:href="#ArialMT-43" x="1964.023438"/>
    <use xlink:href="#ArialMT-6c" x="2036.240234"/>
    <use xlink:href="#ArialMT-69" x="2058.457031"/>
    <use xlink:href="#ArialMT-6d" x="2080.673828"/>
    <use xlink:href="#ArialMT-61" x="2163.974609"/>
    <use xlink:href="#ArialMT-74" x="2219.589844"/>
    <use xlink:href="#ArialMT-65" x="2247.373047"/>
    <use xlink:href="#ArialMT-20" x="2302.988281"/>
    <use xlink:href="#ArialMT-56" x="2330.771484"/>
    <use xlink:href="#ArialMT-61" x="2390.095703"/>
    <use xlink:href="#ArialMT-72" x="2445.710938"/>
    <use xlink:href="#ArialMT-69" x="2479.011719"/>
    <use xlink:href="#ArialMT-61" x="2501.228516"/>
    <use xlink:href="#ArialMT-62" x="2556.84375"/>
    <use xlink:href="#ArialMT-6c" x="2612.458984"/>
    <use xlink:href="#ArialMT-65" x="2634.675781"/>
    <use xlink:href="#ArialMT-73" x="2690.291016"/>
   </g>
  </g>
 </g>
 <defs>
  <clipPath id="p61a8a4303f">
   <rect x="55.76625" y="39.6" width="297.433456" height="272.8575"/>
  </clipPath>
  <clipPath id="p64ecb7a1ce">
   <rect x="412.686397" y="39.6" width="297.433456" height="272.8575"/>
  </clipPath>
  <clipPath id="p170e1be65c">
   <rect x="769.606544" y="39.6" width="297.433456" height="272.8575"/>
  </clipPath>
 </defs>
</svg>
